<svg width="25" height="25" viewBox="0 0 25 25" fill="none" xmlns="http://www.w3.org/2000/svg">
<path d="M17.0508 16.3477C16.5039 16.1572 15.6104 16.0986 15.2197 15.9473C14.9463 15.8398 14.5117 15.7275 14.375 15.5566C14.2334 15.3906 14.2334 14.1846 14.2334 14.1846C14.2334 14.1846 14.5752 13.8672 14.7168 13.5107C14.8584 13.1543 14.9512 12.1875 14.9512 12.1875C14.9512 12.1875 14.9805 12.1973 15.0244 12.1973C15.127 12.1973 15.3125 12.1289 15.4004 11.6797C15.5078 11.1279 15.7129 10.8398 15.6592 10.4346C15.6201 10.1611 15.5029 10.1172 15.4346 10.1172C15.4004 10.1172 15.376 10.127 15.376 10.127C15.376 10.127 15.6543 9.7168 15.6543 8.32031C15.6543 6.88477 14.5459 5.46875 12.5 5.46387C10.4492 5.46875 9.3457 6.88477 9.3457 8.32031C9.3457 9.71191 9.62402 10.127 9.62402 10.127C9.62402 10.127 9.59961 10.1172 9.56543 10.1172C9.49219 10.1172 9.375 10.1611 9.34082 10.4346C9.28711 10.8398 9.4873 11.1328 9.59961 11.6797C9.6875 12.1289 9.87305 12.1973 9.97559 12.1973C10.0195 12.1973 10.0488 12.1875 10.0488 12.1875C10.0488 12.1875 10.1416 13.1592 10.2832 13.5107C10.4248 13.8672 10.7666 14.1846 10.7666 14.1846C10.7666 14.1846 10.7666 15.3906 10.625 15.5566C10.4834 15.7227 10.0537 15.8398 9.78027 15.9473C9.38965 16.0986 8.49609 16.1572 7.94922 16.3477C7.40234 16.5381 5.71289 17.334 5.71289 19.5312H19.2871C19.2871 17.334 17.6025 16.5381 17.0508 16.3477ZM7.18262 17.7539C7.63184 17.2803 8.13965 17.0801 8.19824 17.0605C8.41309 16.9873 8.76465 16.9287 9.07227 16.8799C9.43848 16.8262 9.78027 16.7725 10.0488 16.6699C10.0977 16.6504 10.1611 16.626 10.2295 16.6016C10.5762 16.4795 10.9668 16.3428 11.2158 16.0498C11.4062 15.8252 11.4746 15.5176 11.5137 14.8438C11.5332 14.502 11.5234 14.1895 11.5234 14.1748V13.8379L11.2842 13.6084C11.2305 13.5596 11.0547 13.3643 10.9961 13.2178C10.9375 13.0713 10.8594 12.5244 10.8252 12.2168C10.7666 11.6553 10.5322 11.9482 10.3516 11.4746C10.2539 11.2207 10.21 10.918 10.1416 10.6836C10.0732 10.4443 10.4541 10.2344 10.3662 9.93652C10.2734 9.63867 10.1221 9.25781 10.1221 8.31543C10.1221 7.31445 10.8691 6.25 12.4951 6.24512C14.1211 6.24512 14.8682 7.31445 14.8682 8.31543C14.8682 9.25781 14.7168 9.63867 14.624 9.93652C14.5312 10.2344 14.917 10.4443 14.8486 10.6836C14.7803 10.9229 14.7363 11.2207 14.6387 11.4746C14.4531 11.9482 14.2236 11.6553 14.165 12.2168C14.1309 12.5244 14.0527 13.0664 13.9941 13.2178C13.9355 13.3643 13.7646 13.5596 13.7109 13.6084L13.4766 13.8379V14.1748C13.4766 14.1895 13.4668 14.502 13.4814 14.8438C13.5205 15.5176 13.584 15.8252 13.7744 16.0498C14.0234 16.3428 14.4141 16.4795 14.7607 16.6016C14.8291 16.626 14.8926 16.6504 14.9414 16.6699C15.21 16.7725 15.5566 16.8262 15.918 16.8799C16.2256 16.9238 16.5771 16.9824 16.792 17.0605C16.8506 17.0801 17.3584 17.2852 17.8076 17.7539C18.0957 18.0566 18.2959 18.3105 18.4082 18.75H6.58691C6.69434 18.3105 6.89453 18.0615 7.18262 17.7539Z" fill="#999999"/>
<path d="M7.03613 15.7227C7.47559 15.5029 7.90527 15.5029 8.2373 15.459C8.2373 15.459 8.42285 15.1563 7.8125 15.0488C7.8125 15.0488 6.97754 14.8389 6.87988 14.7217C6.78223 14.6045 6.84082 13.9551 6.84082 13.9551C6.84082 13.9551 8.00781 13.916 8.47168 13.5059C7.71484 12.373 8.12012 11.0498 7.96387 9.81445C7.8125 8.58398 7.0752 7.8125 5.66406 7.8125H5.61523C4.24805 7.8125 3.54492 8.58398 3.38867 9.81934C3.23242 11.0547 3.68164 12.5244 2.90527 13.5156C3.33984 13.9014 4.41406 13.9209 4.53613 13.9209H4.5459L4.55078 13.916C4.55078 13.916 4.59961 14.6094 4.50195 14.7266C4.4043 14.8438 4.11621 14.9512 3.9209 14.9951C3.49121 15.0879 3.03711 15.2393 2.66113 15.3711C2.28516 15.498 1.5625 16.2598 1.5625 17.1875H5.47852C5.58594 16.7969 6.32324 16.084 7.03613 15.7227ZM5.01953 16.4062H2.63184C2.74902 16.2109 2.87109 16.123 2.93457 16.0889C3.28125 15.9668 3.70117 15.8398 4.0918 15.7568C4.25781 15.7227 4.81445 15.5762 5.10742 15.2246C5.25391 15.0537 5.40039 14.7852 5.33203 13.8574L5.30273 13.1592L4.60449 13.1348H4.52148C4.34082 13.1348 4.16016 13.1152 3.99902 13.0908C4.2041 12.4268 4.18457 11.7139 4.16016 11.0645C4.14551 10.6494 4.13574 10.2393 4.17969 9.89258C4.29199 9.00391 4.72168 8.54492 5.61035 8.54492H5.64453C6.62109 8.54492 7.08008 8.99414 7.19727 9.89746C7.24121 10.2441 7.23633 10.625 7.22656 11.0205C7.21191 11.6748 7.19727 12.3926 7.42676 13.1055C7.40723 13.1104 7.39258 13.1152 7.37305 13.1201C7.08008 13.1738 6.82617 13.1836 6.82617 13.1836L6.1377 13.208L6.07422 13.8916C5.99609 14.7461 6.13281 15.0391 6.28906 15.2246L6.29883 15.2344C6.02051 15.4102 5.74707 15.6445 5.50293 15.8691C5.30273 16.04 5.14648 16.2109 5.01953 16.4062ZM19.5215 17.1875H23.4375C23.4375 16.2598 22.7148 15.498 22.3389 15.3662C21.9629 15.2344 21.5039 15.083 21.0791 14.9902C20.8789 14.9463 20.5957 14.8389 20.498 14.7217C20.4004 14.6045 20.4492 13.9111 20.4492 13.9111L20.4541 13.916H20.4639C20.5859 13.916 21.665 13.9014 22.0996 13.5107C21.3232 12.5195 21.7676 11.0498 21.6113 9.81445C21.4551 8.58398 20.752 7.8125 19.3848 7.8125H19.3359C17.9248 7.8125 17.1826 8.58398 17.0312 9.81934C16.875 11.0547 17.2803 12.3779 16.5234 13.5107C16.9873 13.9209 18.1543 13.96 18.1543 13.96C18.1543 13.96 18.2129 14.6094 18.1152 14.7266C18.0176 14.8438 17.1826 15.0537 17.1826 15.0537C16.5723 15.1611 16.7578 15.4639 16.7578 15.4639C17.0898 15.5078 17.5244 15.5078 17.959 15.7275C18.6768 16.084 19.4141 16.7969 19.5215 17.1875ZM19.502 15.8643C19.2578 15.6396 18.9844 15.4053 18.7061 15.2295L18.7158 15.2197C18.8721 15.0293 19.0088 14.7363 18.9307 13.8867L18.8672 13.2031L18.1787 13.1787C18.1787 13.1787 17.9248 13.1689 17.6318 13.1152C17.6123 13.1104 17.5928 13.1055 17.5781 13.1006C17.8076 12.3926 17.793 11.6699 17.7783 11.0156C17.7686 10.6201 17.7637 10.2393 17.8076 9.89258C17.9199 8.98926 18.3838 8.54004 19.3604 8.54004H19.3945C20.2832 8.54004 20.708 8.99902 20.8252 9.8877C20.8691 10.2344 20.8545 10.6445 20.8447 11.0596C20.8252 11.709 20.8008 12.4219 21.0059 13.0859C20.8447 13.1104 20.6641 13.1299 20.4834 13.1299H20.4004L19.6973 13.1494L19.668 13.8477C19.5996 14.7803 19.751 15.0439 19.8926 15.2148C20.1855 15.5664 20.7471 15.7129 20.9082 15.7471C21.2939 15.8301 21.7188 15.957 22.0654 16.0791C22.1289 16.1133 22.251 16.2012 22.3682 16.3965H19.9805C19.8535 16.2109 19.6973 16.04 19.502 15.8643Z" fill="#999999"/>
</svg>
