<svg width="30" height="30" viewBox="0 0 30 30" fill="none" xmlns="http://www.w3.org/2000/svg">
<path fill-rule="evenodd" clip-rule="evenodd" d="M14.9998 1.5625C9.64954 1.5625 5.31231 5.89974 5.31231 11.25V12.1301C5.31231 13.0012 5.05444 13.853 4.57122 14.5777L3.13546 16.7314C1.46909 19.231 2.74123 22.6285 5.63947 23.4189C6.58398 23.6765 7.53647 23.8944 8.49448 24.0726L8.49686 24.079C9.45809 26.6439 12.0272 28.4375 14.9998 28.4375C17.9723 28.4375 20.5414 26.6439 21.5026 24.079L21.505 24.0726C22.463 23.8944 23.4156 23.6765 24.3601 23.4189C27.2584 22.6285 28.5305 19.231 26.8641 16.7314L25.4284 14.5777C24.9451 13.853 24.6873 13.0012 24.6873 12.1301V11.25C24.6873 5.89974 20.35 1.5625 14.9998 1.5625ZM19.2203 24.4213C16.4166 24.7563 13.5828 24.7561 10.7791 24.4211C11.6678 25.6981 13.2135 26.5625 14.9998 26.5625C16.7859 26.5625 18.3316 25.6981 19.2203 24.4213ZM7.18731 11.25C7.18731 6.93527 10.6851 3.4375 14.9998 3.4375C19.3145 3.4375 22.8123 6.93527 22.8123 11.25V12.1301C22.8123 13.3715 23.1798 14.585 23.8683 15.6179L25.304 17.7715C26.2605 19.2061 25.5304 21.1563 23.8668 21.61C18.0615 23.1933 11.9381 23.1933 6.13281 21.61C4.46927 21.1563 3.73909 19.2061 4.69556 17.7715L6.13131 15.6179C6.81987 14.585 7.18731 13.3715 7.18731 12.1301V11.25Z" fill="#242424"/>
</svg>
